<mxfile host="app.diagrams.net" modified="2020-08-09T08:24:31.311Z" agent="5.0 (Windows NT 10.0; Win64; x64) AppleWebKit/537.36 (KHTML, like Gecko) Chrome/84.0.4147.105 Safari/537.36" etag="w6SjVmC3fEPSkghwQbBA" version="13.6.0" type="github">
  <diagram id="prtHgNgQTEPvFCAcTncT" name="Page-1">
    <mxGraphModel dx="731" dy="459" grid="1" gridSize="10" guides="1" tooltips="1" connect="1" arrows="1" fold="1" page="1" pageScale="1" pageWidth="827" pageHeight="1169" math="0" shadow="0">
      <root>
        <mxCell id="0" />
        <mxCell id="1" parent="0" />
        <mxCell id="m0RZPSVap7t2fpv9oxeb-20" value="" style="rounded=1;whiteSpace=wrap;html=1;" parent="1" vertex="1">
          <mxGeometry x="70" y="305" width="660" height="455" as="geometry" />
        </mxCell>
        <mxCell id="m0RZPSVap7t2fpv9oxeb-1" value="" style="rounded=1;whiteSpace=wrap;html=1;fillColor=#1ba1e2;strokeColor=#006EAF;fontColor=#ffffff;" parent="1" vertex="1">
          <mxGeometry x="120" y="360" width="160" height="240" as="geometry" />
        </mxCell>
        <mxCell id="m0RZPSVap7t2fpv9oxeb-8" value="FX" style="text;html=1;strokeColor=none;fillColor=none;align=center;verticalAlign=middle;whiteSpace=wrap;rounded=0;" parent="1" vertex="1">
          <mxGeometry x="180" y="340" width="40" height="20" as="geometry" />
        </mxCell>
        <mxCell id="m0RZPSVap7t2fpv9oxeb-9" value="" style="rounded=1;whiteSpace=wrap;html=1;strokeColor=#6D1F00;fontColor=#ffffff;fillColor=#a0522d;" parent="1" vertex="1">
          <mxGeometry x="320" y="360" width="160" height="240" as="geometry" />
        </mxCell>
        <mxCell id="m0RZPSVap7t2fpv9oxeb-10" value="Clap 4/4" style="text;html=1;strokeColor=none;fillColor=none;align=center;verticalAlign=middle;whiteSpace=wrap;rounded=0;" parent="1" vertex="1">
          <mxGeometry x="360" y="400" width="80" height="20" as="geometry" />
        </mxCell>
        <mxCell id="m0RZPSVap7t2fpv9oxeb-11" value="Cymbal 4/4" style="text;html=1;strokeColor=none;fillColor=none;align=center;verticalAlign=middle;whiteSpace=wrap;rounded=0;" parent="1" vertex="1">
          <mxGeometry x="307.5" y="560" width="190" height="20" as="geometry" />
        </mxCell>
        <mxCell id="m0RZPSVap7t2fpv9oxeb-13" value="Drum" style="text;html=1;strokeColor=none;fillColor=none;align=center;verticalAlign=middle;whiteSpace=wrap;rounded=0;" parent="1" vertex="1">
          <mxGeometry x="380" y="340" width="40" height="20" as="geometry" />
        </mxCell>
        <mxCell id="m0RZPSVap7t2fpv9oxeb-14" value="" style="rounded=1;whiteSpace=wrap;html=1;fillColor=#60a917;strokeColor=#2D7600;fontColor=#ffffff;" parent="1" vertex="1">
          <mxGeometry x="520" y="360" width="160" height="240" as="geometry" />
        </mxCell>
        <mxCell id="m0RZPSVap7t2fpv9oxeb-15" value="Mid Low Melody&lt;br&gt;Pluck Melody" style="text;html=1;strokeColor=none;fillColor=none;align=center;verticalAlign=middle;whiteSpace=wrap;rounded=0;" parent="1" vertex="1">
          <mxGeometry x="550" y="400" width="100" height="20" as="geometry" />
        </mxCell>
        <mxCell id="m0RZPSVap7t2fpv9oxeb-16" value="Guitar SEQ&lt;br&gt;Warm SEQ" style="text;html=1;strokeColor=none;fillColor=none;align=center;verticalAlign=middle;whiteSpace=wrap;rounded=0;" parent="1" vertex="1">
          <mxGeometry x="537.5" y="450" width="125" height="20" as="geometry" />
        </mxCell>
        <mxCell id="m0RZPSVap7t2fpv9oxeb-18" value="Melody" style="text;html=1;strokeColor=none;fillColor=none;align=center;verticalAlign=middle;whiteSpace=wrap;rounded=0;" parent="1" vertex="1">
          <mxGeometry x="580" y="340" width="40" height="20" as="geometry" />
        </mxCell>
        <mxCell id="m0RZPSVap7t2fpv9oxeb-21" value="Breakdown" style="text;html=1;strokeColor=none;fillColor=none;align=center;verticalAlign=middle;whiteSpace=wrap;rounded=0;" parent="1" vertex="1">
          <mxGeometry x="365" y="285" width="70" height="20" as="geometry" />
        </mxCell>
        <mxCell id="_SBC7PhoCTFk9qtBru0z-3" value="" style="rounded=1;whiteSpace=wrap;html=1;fillColor=#1ba1e2;arcSize=24;strokeColor=#006EAF;fontColor=#ffffff;" parent="1" vertex="1">
          <mxGeometry x="120" y="620" width="160" height="100" as="geometry" />
        </mxCell>
        <mxCell id="_SBC7PhoCTFk9qtBru0z-8" value="" style="rounded=1;whiteSpace=wrap;html=1;fillColor=#a0522d;strokeColor=#6D1F00;fontColor=#ffffff;" parent="1" vertex="1">
          <mxGeometry x="325" y="620" width="155" height="100" as="geometry" />
        </mxCell>
        <mxCell id="_SBC7PhoCTFk9qtBru0z-10" value="Soft PAD&lt;br&gt;Saw PAD&lt;br&gt;Orchestral Pad" style="text;html=1;strokeColor=none;fillColor=none;align=center;verticalAlign=middle;whiteSpace=wrap;rounded=0;" parent="1" vertex="1">
          <mxGeometry x="540" y="510" width="120" height="20" as="geometry" />
        </mxCell>
        <mxCell id="_SBC7PhoCTFk9qtBru0z-12" value="" style="rounded=1;whiteSpace=wrap;html=1;fillColor=#60a917;strokeColor=#2D7600;fontColor=#ffffff;" parent="1" vertex="1">
          <mxGeometry x="520" y="620" width="160" height="100" as="geometry" />
        </mxCell>
        <mxCell id="_SBC7PhoCTFk9qtBru0z-13" value="Fliter Automation" style="text;html=1;strokeColor=none;fillColor=none;align=center;verticalAlign=middle;whiteSpace=wrap;rounded=0;" parent="1" vertex="1">
          <mxGeometry x="535" y="640" width="130" height="20" as="geometry" />
        </mxCell>
        <mxCell id="_SBC7PhoCTFk9qtBru0z-15" value="Sidechain Automation" style="text;html=1;strokeColor=none;fillColor=none;align=center;verticalAlign=middle;whiteSpace=wrap;rounded=0;" parent="1" vertex="1">
          <mxGeometry x="530" y="680" width="140" height="20" as="geometry" />
        </mxCell>
        <mxCell id="8lJQJiedQ8wIJxoocWai-1" value="Piano Chord&lt;br&gt;Guitar Chord" style="text;html=1;strokeColor=none;fillColor=none;align=center;verticalAlign=middle;whiteSpace=wrap;rounded=0;" parent="1" vertex="1">
          <mxGeometry x="540" y="560" width="120" height="20" as="geometry" />
        </mxCell>
        <mxCell id="8lJQJiedQ8wIJxoocWai-2" value="Down Sweep" style="text;html=1;strokeColor=none;fillColor=none;align=center;verticalAlign=middle;whiteSpace=wrap;rounded=0;" parent="1" vertex="1">
          <mxGeometry x="140" y="400" width="120" height="20" as="geometry" />
        </mxCell>
      </root>
    </mxGraphModel>
  </diagram>
</mxfile>
